<svg viewBox="0 0 512 512"><path d="M285 1.6c-36.4 6.6-66.5 26.6-81.8 54.4-3.7 6.5-8 19.1-9.3 26.9-.5 3.1-.9 24.4-.9 47.3V172h-30.7c-33.2.1-33.2.1-35.3 5.4-1.4 3.7-1.4 86.5 0 90.2 2.1 5.3 2.2 5.3 34.3 5.4H191v234.7l2.3 2.1 2.3 2.2H298.9l2-2.6c2.1-2.7 2.1-2.8 2.1-119V274h33.4c18.4 0 34.2-.3 35.1-.6.8-.4 2.2-1.9 3-3.3.8-1.6 3.5-21 6.5-46.9 5.4-46.4 5.4-46.6 1.1-49.9-1.2-.9-11.5-1.2-40.4-1.3h-38.9l.4-30.3c.4-32.9.6-34.3 6.4-40 5.9-5.9 7.2-6.1 39.9-6.4 19.6-.2 30.8-.7 32.2-1.5 1.2-.6 2.7-2.4 3.3-4.1.6-1.9 1-17.7 1-42.9 0-41.9-.3-44.5-4.5-46.2-.9-.3-21.3-.6-45.3-.5-32.4.1-45.6.4-51.2 1.5z"></path></svg>
