<svg id="Layer_1" data-name="Layer 1" xmlns="http://www.w3.org/2000/svg" viewBox="0 0 489.95 485.55">
<path class="cls-1" d="M239.9,4.15l-24.5,10.1a25.67,25.67,0,0,0-13.9,33.5l6.3,15.2a156,156,0,0,0-32.2,32.2l-15.2-6.3a25.65,25.65,0,0,0-33.5,13.9l-10.2,24.5a25.64,25.64,0,0,0,13.9,33.5l22.5,9.3a9.89,9.89,0,1,0,7.5-18.3l-22.5-9.3a5.93,5.93,0,0,1-3.2-7.7l10.2-24.5a5.9,5.9,0,0,1,7.7-3.2l22.5,9.3a9.87,9.87,0,0,0,12-3.6,135.53,135.53,0,0,1,38.1-38.1,10,10,0,0,0,3.7-12l-9.3-22.5a6,6,0,0,1,3.2-7.7l24.5-10.1a5.9,5.9,0,0,1,7.7,3.2l9.3,22.5A9.74,9.74,0,0,0,275.6,54a137.22,137.22,0,0,1,53.8,0,10,10,0,0,0,11.1-5.9l9.3-22.5a5.93,5.93,0,0,1,7.7-3.2L382,32.55a5.9,5.9,0,0,1,3.2,7.7l-9.3,22.5a9.87,9.87,0,0,0,3.6,12,135.53,135.53,0,0,1,38.1,38.1,10,10,0,0,0,12,3.7l22.5-9.3a5.9,5.9,0,0,1,7.7,3.2L469.9,135a5.9,5.9,0,0,1-3.2,7.7L444.2,152a9.85,9.85,0,0,0-5.9,11.1,137.22,137.22,0,0,1,0,53.8,10,10,0,0,0,5.9,11.1l22.5,9.3a5.93,5.93,0,0,1,3.2,7.7l-10.2,24.5a5.93,5.93,0,0,1-7.7,3.2l-22.5-9.3a9.87,9.87,0,0,0-12,3.6,135.53,135.53,0,0,1-38.1,38.1,10,10,0,0,0-3.7,12l9.3,22.5a5.9,5.9,0,0,1-3.2,7.7l-24.5,10.1a5.9,5.9,0,0,1-7.7-3.2l-9.3-22.5a9.89,9.89,0,1,0-18.3,7.5l9.3,22.5a25.6,25.6,0,0,0,13.9,13.9,26,26,0,0,0,9.8,2,25.63,25.63,0,0,0,9.8-2l24.5-10.1A25.65,25.65,0,0,0,403.2,332l-6.3-15.2a156,156,0,0,0,32.2-32.2l15.2,6.3A25.64,25.64,0,0,0,477.8,277l10.2-24.5A25.64,25.64,0,0,0,474.1,219l-15.2-6.3a157.66,157.66,0,0,0,0-45.5l15.2-6.3a25.65,25.65,0,0,0,13.9-33.5l-10.1-24.5A25.65,25.65,0,0,0,444.4,89l-15.2,6.3a155.52,155.52,0,0,0-32.1-32.2l6.3-15.2a25.65,25.65,0,0,0-13.9-33.5L365,4.15A25.64,25.64,0,0,0,331.5,18l-6.3,15.2a157.66,157.66,0,0,0-45.5,0L273.4,18a25.65,25.65,0,0,0-33.5-13.9Z" transform="translate(0 -2.2)"/><path class="cls-1" d="M382.9,189.25a80.58,80.58,0,0,0-80.5-79.9h-.6a80.58,80.58,0,0,0-80,81.1,9.9,9.9,0,0,0,9.9,9.8h.1a9.8,9.8,0,0,0,9.8-10,60.78,60.78,0,0,1,60.3-61.2h.4a60.75,60.75,0,0,1,.4,121.5,9.8,9.8,0,0,0-9.8,10,9.9,9.9,0,0,0,9.9,9.8h.1A80.6,80.6,0,0,0,382.9,189.25Z" transform="translate(0 -2.2)"/>
<path class="cls-1" d="M135.3,487.75h19.3a21.42,21.42,0,0,0,21.4-21.4v-9.9a113.4,113.4,0,0,0,27.4-11.4l7,7a21.35,21.35,0,0,0,15.1,6.3,20.94,20.94,0,0,0,15.1-6.3l13.6-13.6a21.35,21.35,0,0,0,6.3-15.1,20.94,20.94,0,0,0-6.3-15.1l-7-7a113.4,113.4,0,0,0,11.4-27.4h9.9a21.42,21.42,0,0,0,21.4-21.4v-19.3a21.42,21.42,0,0,0-21.4-21.4h-9.9a113.4,113.4,0,0,0-11.4-27.4l7-7a21.35,21.35,0,0,0,6.3-15.1,20.94,20.94,0,0,0-6.3-15.1l-13.6-13.6a21.35,21.35,0,0,0-15.1-6.3,20.94,20.94,0,0,0-15.1,6.3l-7,7a113.4,113.4,0,0,0-27.4-11.4v-9.9a21.42,21.42,0,0,0-21.4-21.4H135.3a21.42,21.42,0,0,0-21.4,21.4v9.9a113.4,113.4,0,0,0-27.4,11.4l-7-7a21.35,21.35,0,0,0-15.1-6.3,20.94,20.94,0,0,0-15.1,6.3l-13.6,13.6a21.43,21.43,0,0,0,0,30.2l7,7a113.4,113.4,0,0,0-11.4,27.4H21.4A21.42,21.42,0,0,0,0,333.15v19.3a21.42,21.42,0,0,0,21.4,21.4h9.9a113.4,113.4,0,0,0,11.4,27.4l-7,7a21.43,21.43,0,0,0,0,30.2l13.6,13.6a21.35,21.35,0,0,0,15.1,6.3,20.94,20.94,0,0,0,15.1-6.3l7-7a113.4,113.4,0,0,0,27.4,11.4v9.9A21.55,21.55,0,0,0,135.3,487.75Zm-44.7-63.4a10.16,10.16,0,0,0-5.5-1.7,9.84,9.84,0,0,0-7,2.9L65.6,438a1.46,1.46,0,0,1-2.2,0l-13.6-13.6a1.57,1.57,0,0,1,0-2.2l12.5-12.5a9.85,9.85,0,0,0,1.2-12.5A96.44,96.44,0,0,1,48.9,362a10,10,0,0,0-9.7-8H21.5a1.58,1.58,0,0,1-1.6-1.6v-19.3a1.58,1.58,0,0,1,1.6-1.6H39.2a9.85,9.85,0,0,0,9.7-8,96.44,96.44,0,0,1,14.6-35.2,10,10,0,0,0-1.2-12.5l-12.5-12.5a1.57,1.57,0,0,1,0-2.2l13.6-13.6a1.46,1.46,0,0,1,2.2,0l12.5,12.7a9.85,9.85,0,0,0,12.5,1.2,96.44,96.44,0,0,1,35.2-14.6,10,10,0,0,0,8-9.7v-17.7a1.58,1.58,0,0,1,1.6-1.6h19.3a1.58,1.58,0,0,1,1.6,1.6v17.7a9.85,9.85,0,0,0,8,9.7,96.44,96.44,0,0,1,35.2,14.6,10,10,0,0,0,12.5-1.2l12.5-12.5a1.46,1.46,0,0,1,2.2,0l13.6,13.6a1.46,1.46,0,0,1,0,2.2L227.8,276a9.85,9.85,0,0,0-1.2,12.5,96.44,96.44,0,0,1,14.6,35.2,10,10,0,0,0,9.7,8h17.7a1.58,1.58,0,0,1,1.6,1.6v19.3a1.58,1.58,0,0,1-1.6,1.6H250.9a9.85,9.85,0,0,0-9.7,8,96.44,96.44,0,0,1-14.6,35.2,10,10,0,0,0,1.2,12.5l12.5,12.5a1.46,1.46,0,0,1,0,2.2l-13.6,13.6a1.46,1.46,0,0,1-2.2,0L212,425.75a9.85,9.85,0,0,0-12.5-1.2,96.44,96.44,0,0,1-35.2,14.6,10,10,0,0,0-8,9.7v17.7a1.58,1.58,0,0,1-1.6,1.6H135.4a1.58,1.58,0,0,1-1.6-1.6v-17.7a9.85,9.85,0,0,0-8-9.7A100.42,100.42,0,0,1,90.6,424.35Z" transform="translate(0 -2.2)"/>
<path class="cls-1" d="M203.7,343a58.75,58.75,0,1,0-58.7,58.8A58.9,58.9,0,0,0,203.7,343ZM106,343a39,39,0,1,1,39,39A39.05,39.05,0,0,1,106,343Z" transform="translate(0 -2.2)"/>
</svg>
