<svg fill="#00ffd7" height="15" width="12" xmlns="http://www.w3.org/2000/svg"><path d="M5.786.003C2.798.108.315 2.432.029 5.398c-.059.594-.025 1.169.08 1.719s.009.064.04.187c.092.412.231.812.404 1.187.601 1.42 1.992 3.797 5.113 6.383a.525.525 0 0 0 .666 0c3.121-2.583 4.512-4.96 5.116-6.386.176-.375.311-.772.404-1.187.028-.12.04-.187.04-.187.071-.369.108-.747.108-1.135C12 2.604 9.197-.117 5.786.003zm.213 8.952c-1.61 0-2.914-1.3-2.914-2.905s1.304-2.905 2.914-2.905 2.914 1.3 2.914 2.905-1.304 2.905-2.914 2.905z"/></svg>
