<svg height="12" width="16" xmlns="http://www.w3.org/2000/svg"><filter id="a"><feFlood flood-color="#00ceb9" result="floodOut"/><feComposite in="floodOut" in2="SourceGraphic" operator="atop" result="compOut"/><feBlend in="compOut" in2="SourceGraphic"/></filter><g filter="url(#a)"><path d="M13.999 11.42c1.097 0 1.994-.803 1.994-1.792V2.245c0-.986-.893-1.792-1.994-1.792H1.993C.896.453 0 1.255 0 2.245v7.383c0 .986.892 1.792 1.993 1.792zM2.037 2.947a.41.41 0 0 1-.056-.623.528.528 0 0 1 .692-.051l5.323 4.068 5.327-4.063a.53.53 0 0 1 .692.05.412.412 0 0 1-.056.622l-3.802 2.902 3.818 3.232a.408.408 0 0 1 .02.623.529.529 0 0 1-.692.021L9.401 6.427l-1.089.832c-.092.068-.204.105-.316.105s-.224-.037-.316-.105l-1.089-.832-3.902 3.301a.529.529 0 0 1-.692-.021.411.411 0 0 1 .02-.623l3.818-3.232z" fill="#666" fill-rule="evenodd"/></g></svg>