<svg height="13" width="14" xmlns="http://www.w3.org/2000/svg"><filter id="a"><feFlood flood-color="#00ceb9" result="floodOut"/><feComposite in="floodOut" in2="SourceGraphic" operator="atop" result="compOut"/><feBlend in="compOut" in2="SourceGraphic"/></filter><g filter="url(#a)"><path d="M12.995 10.675c-.369 1.202-1.748 2.075-3.278 2.074a4.16 4.16 0 0 1-.448-.025c-1.86-.245-4.037-1.415-5.828-3.133C1.556 7.939.279 5.944.027 4.253-.229 2.541.607 1.265 2.262.838A1.07 1.07 0 0 1 2.53.805c.969 0 2.124 1.255 2.525 2.156.261.586.241 1.038-.057 1.306-.75.673-1.029 1.083-.997 1.46.037.421.464.907 1.189 1.604.093.089.216.208.356.336.13.118.254.228.364.324.81.709 1.339 1.093 1.815 1.093.395 0 .823-.257 1.528-.916.106-.1.303-.219.635-.219.874 0 2.108.782 2.712 1.513.366.442.502.861.395 1.213z" fill="#666" fill-rule="evenodd"/></g></svg>