<svg xmlns="http://www.w3.org/2000/svg" xmlns:xlink="http://www.w3.org/1999/xlink"><symbol id="arrow" viewBox="0 0 16 6"><path d="M12 0v6l4-3-4-3zM0 2h12v2H0V2z"/></symbol><symbol id="fb" viewBox="0 0 512 512"><path d="M285 1.6c-36.4 6.6-66.5 26.6-81.8 54.4-3.7 6.5-8 19.1-9.3 26.9-.5 3.1-.9 24.4-.9 47.3V172h-30.7c-33.2.1-33.2.1-35.3 5.4-1.4 3.7-1.4 86.5 0 90.2 2.1 5.3 2.2 5.3 34.3 5.4H191v234.7l2.3 2.1 2.3 2.2H298.9l2-2.6c2.1-2.7 2.1-2.8 2.1-119V274h33.4c18.4 0 34.2-.3 35.1-.6.8-.4 2.2-1.9 3-3.3.8-1.6 3.5-21 6.5-46.9 5.4-46.4 5.4-46.6 1.1-49.9-1.2-.9-11.5-1.2-40.4-1.3h-38.9l.4-30.3c.4-32.9.6-34.3 6.4-40 5.9-5.9 7.2-6.1 39.9-6.4 19.6-.2 30.8-.7 32.2-1.5 1.2-.6 2.7-2.4 3.3-4.1.6-1.9 1-17.7 1-42.9 0-41.9-.3-44.5-4.5-46.2-.9-.3-21.3-.6-45.3-.5-32.4.1-45.6.4-51.2 1.5z"/></symbol><symbol id="handshake" viewBox="0 0 489.9 322.85">
<path class="cls-1" d="M1,250.77a9.69,9.69,0,0,0,5.7,5l62.6,21.5a8.92,8.92,0,0,0,3.2.5,10,10,0,0,0,9.4-6.7L131,127.77l2.5.9a50.78,50.78,0,0,0,39-2.2l6.1-3a30.68,30.68,0,0,1,23.4-1.4l114.2,39.4c-1.2,4.4-3.5,9.5-7.5,12.3-4.6,3.2-11.7,3.2-21,0l-51.2-17.5a9.91,9.91,0,0,0-7.9.7,10.13,10.13,0,0,0-4.9,6.2c-.1.3-7.3,26.7-29.5,38.6-14,7.5-31.5,7.7-52,.7a9.93,9.93,0,1,0-6.4,18.8c12,4.1,23.4,6.2,34,6.2a70.87,70.87,0,0,0,33.9-8.3c20-10.8,30.6-29.4,35.5-40.9l42,14.4c15.6,5.3,28.6,4.5,38.7-2.5,15.9-11,17-32.5,17.1-34.9a10.12,10.12,0,0,0-6.7-9.7l-122-42.1a50.71,50.71,0,0,0-38.6,2.4l-6.1,3a31,31,0,0,1-23.7,1.4l-10.1-3.6a6.63,6.63,0,0,0-1.9-.9l-62.3-21.7A9.91,9.91,0,0,0,53,90.27l-52.5,153A10.29,10.29,0,0,0,1,250.77ZM68.59,106l43.8,15-46,134.3-43.8-15Z" transform="translate(0 -83.53)"/>
<path class="cls-1" d="M104.09,341.47a29,29,0,0,0,25.1,16.2,29.83,29.83,0,0,0,2.9,12.7,28.53,28.53,0,0,0,16.7,14.7,28.39,28.39,0,0,0,22.1-1.4l5.2-2.6a30,30,0,0,0,2.7,9,28.53,28.53,0,0,0,16.7,14.7,28.39,28.39,0,0,0,22.1-1.4l113.7-55.7a292.75,292.75,0,0,0,69.6-47.5l25.4-23.3,58.1-28.4a9.85,9.85,0,0,0,4.5-13.2L418.09,90a9.92,9.92,0,0,0-13.3-4.5l-59.4,29.1a9.85,9.85,0,0,0-4.5,13.2l67.8,138.6-21,19.3a276.24,276.24,0,0,1-64.9,44.3l-113.7,55.7a9.19,9.19,0,0,1-7.1.4,9.42,9.42,0,0,1-5.3-4.7,9.19,9.19,0,0,1-.4-7.1A9.42,9.42,0,0,1,201,369l63.6-31.1a9.86,9.86,0,0,0-8.7-17.7l-63.6,31.1h0l-30,14.7a9.19,9.19,0,0,1-7.1.4,9.42,9.42,0,0,1-5.3-4.7,9.19,9.19,0,0,1-.4-7.1,9.42,9.42,0,0,1,4.7-5.3l91.2-44.6a9.86,9.86,0,0,0-8.7-17.7l-102.5,50.1a9.39,9.39,0,0,1-12.4-4.2,9.19,9.19,0,0,1-.4-7.1,9.42,9.42,0,0,1,4.7-5.3l40.4-19.8h0L219,275a9.86,9.86,0,0,0-8.7-17.7l-81.7,40a9.26,9.26,0,0,1-8.2-16.6l43.4-21.2a9.86,9.86,0,0,0-8.7-17.7L111.69,263a29.06,29.06,0,0,0-5.1,49A28.58,28.58,0,0,0,104.09,341.47ZM363,128l41.6-20.4L467,235.07l-41.6,20.4Z" transform="translate(0 -83.53)"/>
</symbol><symbol id="like" viewBox="0 0 467.52 488.6">
<path class="cls-1" d="M475.21,188.1a25.12,25.12,0,0,0-11-33.8l-54-27.4a5.16,5.16,0,0,1-2.8-3.9L398,63.2A25,25,0,0,0,373.21,42a26.93,26.93,0,0,0-4,.3l-59.8,9.5a5.23,5.23,0,0,1-4.6-1.5L262.11,7.4a25.11,25.11,0,0,0-35.6,0l-42.8,42.8a5.46,5.46,0,0,1-3.8,1.6,2,2,0,0,1-.8-.1l-59.8-9.5a26.93,26.93,0,0,0-4-.3,25,25,0,0,0-24.8,21.2l-9.4,59.8a5.4,5.4,0,0,1-2.8,3.9l-54,27.4a24.77,24.77,0,0,0-12.5,14.6,25.13,25.13,0,0,0,1.5,19.2l27.5,53.9a5.1,5.1,0,0,1,0,4.8l-27.5,53.9a25.12,25.12,0,0,0,11,33.8l54,27.4a5.16,5.16,0,0,1,2.8,3.9l9.4,59.8a25,25,0,0,0,24.8,21.2,26.93,26.93,0,0,0,4-.3l59.8-9.5a5.23,5.23,0,0,1,4.6,1.5l42.8,42.8a25.11,25.11,0,0,0,35.6,0l42.8-42.8a5.23,5.23,0,0,1,4.6-1.5l59.8,9.5a26.93,26.93,0,0,0,4,.3,25,25,0,0,0,24.8-21.2l9.4-59.8a5.4,5.4,0,0,1,2.8-3.9l54-27.4a24.77,24.77,0,0,0,12.5-14.6,25.13,25.13,0,0,0-1.5-19.2l-27.5-53.9a5.1,5.1,0,0,1,0-4.8ZM430,255.8l27.5,53.9a5.31,5.31,0,0,1,.3,4.1,4.9,4.9,0,0,1-2.7,3.1l-54,27.4a25,25,0,0,0-13.4,18.5l-9.4,59.8a5.33,5.33,0,0,1-6.1,4.4l-59.8-9.5a26,26,0,0,0-4-.3,25,25,0,0,0-17.8,7.4l-42.5,42.8a5.44,5.44,0,0,1-7.5,0l-42.8-42.8a25.39,25.39,0,0,0-17.8-7.4,26.93,26.93,0,0,0-4,.3l-59.8,9.5a5.33,5.33,0,0,1-6.1-4.4l-9.4-59.8a25.19,25.19,0,0,0-13.4-18.5l-54-27.4a5.2,5.2,0,0,1-2.7-3.1,5.8,5.8,0,0,1,.3-4.1l27.5-53.9a25,25,0,0,0,0-22.9L30.91,179a5.31,5.31,0,0,1-.3-4.1,4.9,4.9,0,0,1,2.7-3.1l54-27.4a25,25,0,0,0,13.4-18.5l9.4-59.8a5.33,5.33,0,0,1,6.1-4.4L176,71.2a26,26,0,0,0,4,.3h0a25,25,0,0,0,17.8-7.4l42.7-42.7a5.44,5.44,0,0,1,7.5,0l42.8,42.8a24.8,24.8,0,0,0,17.8,7.4,26.93,26.93,0,0,0,4-.3l59.8-9.5a5.39,5.39,0,0,1,6.1,4.4l9.4,59.8a25.19,25.19,0,0,0,13.4,18.5l54,27.4A5.2,5.2,0,0,1,458,175a5.31,5.31,0,0,1-.3,4.1L430.21,233A24.81,24.81,0,0,0,430,255.8Z" transform="translate(-10.54 0)"/>
<path class="cls-1" d="M322.51,184.7h-44.1V154.1c0-16.2-4.9-28-14.6-35.1-14.9-11-34.4-5.3-36.6-4.6a9.87,9.87,0,0,0-6.9,9.4v39.1c0,27.5-32.8,37.2-34.1,37.6a11.92,11.92,0,0,0-2,.8,19.8,19.8,0,0,0-11.7-3.9h-28.3a19.53,19.53,0,0,0-19.5,19.5v97.7a19.53,19.53,0,0,0,19.5,19.5h28.3a19.87,19.87,0,0,0,12.7-4.7,35.37,35.37,0,0,0,22.6,8.2h95.8c23.2,0,38.7-12.8,41.4-34.2l12.9-81.8a7.57,7.57,0,0,0,.1-1.5A35.49,35.49,0,0,0,322.51,184.7ZM172.31,314.5h-27.8V217.3h27.8Zm153.2-13.8v.3c-.6,4.6-2.1,17-21.8,17h-95.8a15.83,15.83,0,0,1-15.8-15.8V219.5c5.6-1.7,48-15.8,48-56.5V132.2c4-.2,8.7.3,12,2.8,4.3,3.2,6.4,9.6,6.4,19.1v40.5a9.86,9.86,0,0,0,9.9,9.9h54a15.68,15.68,0,0,1,15.7,15.1Z" transform="translate(-10.54 0)"/>
</symbol><symbol id="settings" viewBox="0 0 489.95 485.55">
<path class="cls-1" d="M239.9,4.15l-24.5,10.1a25.67,25.67,0,0,0-13.9,33.5l6.3,15.2a156,156,0,0,0-32.2,32.2l-15.2-6.3a25.65,25.65,0,0,0-33.5,13.9l-10.2,24.5a25.64,25.64,0,0,0,13.9,33.5l22.5,9.3a9.89,9.89,0,1,0,7.5-18.3l-22.5-9.3a5.93,5.93,0,0,1-3.2-7.7l10.2-24.5a5.9,5.9,0,0,1,7.7-3.2l22.5,9.3a9.87,9.87,0,0,0,12-3.6,135.53,135.53,0,0,1,38.1-38.1,10,10,0,0,0,3.7-12l-9.3-22.5a6,6,0,0,1,3.2-7.7l24.5-10.1a5.9,5.9,0,0,1,7.7,3.2l9.3,22.5A9.74,9.74,0,0,0,275.6,54a137.22,137.22,0,0,1,53.8,0,10,10,0,0,0,11.1-5.9l9.3-22.5a5.93,5.93,0,0,1,7.7-3.2L382,32.55a5.9,5.9,0,0,1,3.2,7.7l-9.3,22.5a9.87,9.87,0,0,0,3.6,12,135.53,135.53,0,0,1,38.1,38.1,10,10,0,0,0,12,3.7l22.5-9.3a5.9,5.9,0,0,1,7.7,3.2L469.9,135a5.9,5.9,0,0,1-3.2,7.7L444.2,152a9.85,9.85,0,0,0-5.9,11.1,137.22,137.22,0,0,1,0,53.8,10,10,0,0,0,5.9,11.1l22.5,9.3a5.93,5.93,0,0,1,3.2,7.7l-10.2,24.5a5.93,5.93,0,0,1-7.7,3.2l-22.5-9.3a9.87,9.87,0,0,0-12,3.6,135.53,135.53,0,0,1-38.1,38.1,10,10,0,0,0-3.7,12l9.3,22.5a5.9,5.9,0,0,1-3.2,7.7l-24.5,10.1a5.9,5.9,0,0,1-7.7-3.2l-9.3-22.5a9.89,9.89,0,1,0-18.3,7.5l9.3,22.5a25.6,25.6,0,0,0,13.9,13.9,26,26,0,0,0,9.8,2,25.63,25.63,0,0,0,9.8-2l24.5-10.1A25.65,25.65,0,0,0,403.2,332l-6.3-15.2a156,156,0,0,0,32.2-32.2l15.2,6.3A25.64,25.64,0,0,0,477.8,277l10.2-24.5A25.64,25.64,0,0,0,474.1,219l-15.2-6.3a157.66,157.66,0,0,0,0-45.5l15.2-6.3a25.65,25.65,0,0,0,13.9-33.5l-10.1-24.5A25.65,25.65,0,0,0,444.4,89l-15.2,6.3a155.52,155.52,0,0,0-32.1-32.2l6.3-15.2a25.65,25.65,0,0,0-13.9-33.5L365,4.15A25.64,25.64,0,0,0,331.5,18l-6.3,15.2a157.66,157.66,0,0,0-45.5,0L273.4,18a25.65,25.65,0,0,0-33.5-13.9Z" transform="translate(0 -2.2)"/><path class="cls-1" d="M382.9,189.25a80.58,80.58,0,0,0-80.5-79.9h-.6a80.58,80.58,0,0,0-80,81.1,9.9,9.9,0,0,0,9.9,9.8h.1a9.8,9.8,0,0,0,9.8-10,60.78,60.78,0,0,1,60.3-61.2h.4a60.75,60.75,0,0,1,.4,121.5,9.8,9.8,0,0,0-9.8,10,9.9,9.9,0,0,0,9.9,9.8h.1A80.6,80.6,0,0,0,382.9,189.25Z" transform="translate(0 -2.2)"/>
<path class="cls-1" d="M135.3,487.75h19.3a21.42,21.42,0,0,0,21.4-21.4v-9.9a113.4,113.4,0,0,0,27.4-11.4l7,7a21.35,21.35,0,0,0,15.1,6.3,20.94,20.94,0,0,0,15.1-6.3l13.6-13.6a21.35,21.35,0,0,0,6.3-15.1,20.94,20.94,0,0,0-6.3-15.1l-7-7a113.4,113.4,0,0,0,11.4-27.4h9.9a21.42,21.42,0,0,0,21.4-21.4v-19.3a21.42,21.42,0,0,0-21.4-21.4h-9.9a113.4,113.4,0,0,0-11.4-27.4l7-7a21.35,21.35,0,0,0,6.3-15.1,20.94,20.94,0,0,0-6.3-15.1l-13.6-13.6a21.35,21.35,0,0,0-15.1-6.3,20.94,20.94,0,0,0-15.1,6.3l-7,7a113.4,113.4,0,0,0-27.4-11.4v-9.9a21.42,21.42,0,0,0-21.4-21.4H135.3a21.42,21.42,0,0,0-21.4,21.4v9.9a113.4,113.4,0,0,0-27.4,11.4l-7-7a21.35,21.35,0,0,0-15.1-6.3,20.94,20.94,0,0,0-15.1,6.3l-13.6,13.6a21.43,21.43,0,0,0,0,30.2l7,7a113.4,113.4,0,0,0-11.4,27.4H21.4A21.42,21.42,0,0,0,0,333.15v19.3a21.42,21.42,0,0,0,21.4,21.4h9.9a113.4,113.4,0,0,0,11.4,27.4l-7,7a21.43,21.43,0,0,0,0,30.2l13.6,13.6a21.35,21.35,0,0,0,15.1,6.3,20.94,20.94,0,0,0,15.1-6.3l7-7a113.4,113.4,0,0,0,27.4,11.4v9.9A21.55,21.55,0,0,0,135.3,487.75Zm-44.7-63.4a10.16,10.16,0,0,0-5.5-1.7,9.84,9.84,0,0,0-7,2.9L65.6,438a1.46,1.46,0,0,1-2.2,0l-13.6-13.6a1.57,1.57,0,0,1,0-2.2l12.5-12.5a9.85,9.85,0,0,0,1.2-12.5A96.44,96.44,0,0,1,48.9,362a10,10,0,0,0-9.7-8H21.5a1.58,1.58,0,0,1-1.6-1.6v-19.3a1.58,1.58,0,0,1,1.6-1.6H39.2a9.85,9.85,0,0,0,9.7-8,96.44,96.44,0,0,1,14.6-35.2,10,10,0,0,0-1.2-12.5l-12.5-12.5a1.57,1.57,0,0,1,0-2.2l13.6-13.6a1.46,1.46,0,0,1,2.2,0l12.5,12.7a9.85,9.85,0,0,0,12.5,1.2,96.44,96.44,0,0,1,35.2-14.6,10,10,0,0,0,8-9.7v-17.7a1.58,1.58,0,0,1,1.6-1.6h19.3a1.58,1.58,0,0,1,1.6,1.6v17.7a9.85,9.85,0,0,0,8,9.7,96.44,96.44,0,0,1,35.2,14.6,10,10,0,0,0,12.5-1.2l12.5-12.5a1.46,1.46,0,0,1,2.2,0l13.6,13.6a1.46,1.46,0,0,1,0,2.2L227.8,276a9.85,9.85,0,0,0-1.2,12.5,96.44,96.44,0,0,1,14.6,35.2,10,10,0,0,0,9.7,8h17.7a1.58,1.58,0,0,1,1.6,1.6v19.3a1.58,1.58,0,0,1-1.6,1.6H250.9a9.85,9.85,0,0,0-9.7,8,96.44,96.44,0,0,1-14.6,35.2,10,10,0,0,0,1.2,12.5l12.5,12.5a1.46,1.46,0,0,1,0,2.2l-13.6,13.6a1.46,1.46,0,0,1-2.2,0L212,425.75a9.85,9.85,0,0,0-12.5-1.2,96.44,96.44,0,0,1-35.2,14.6,10,10,0,0,0-8,9.7v17.7a1.58,1.58,0,0,1-1.6,1.6H135.4a1.58,1.58,0,0,1-1.6-1.6v-17.7a9.85,9.85,0,0,0-8-9.7A100.42,100.42,0,0,1,90.6,424.35Z" transform="translate(0 -2.2)"/>
<path class="cls-1" d="M203.7,343a58.75,58.75,0,1,0-58.7,58.8A58.9,58.9,0,0,0,203.7,343ZM106,343a39,39,0,1,1,39,39A39.05,39.05,0,0,1,106,343Z" transform="translate(0 -2.2)"/>
</symbol><symbol id="twitter" viewBox="0 0 612 612"><path d="M612 116.258c-22.525 9.981-46.694 16.75-72.088 19.772 25.929-15.527 45.777-40.155 55.184-69.411-24.322 14.379-51.169 24.82-79.775 30.48-22.907-24.437-55.49-39.658-91.63-39.658-69.334 0-125.551 56.217-125.551 125.513 0 9.828 1.109 19.427 3.251 28.606-104.326-5.24-196.835-55.223-258.75-131.174-10.823 18.51-16.98 40.078-16.98 63.101 0 43.559 22.181 81.993 55.835 104.479-20.575-.688-39.926-6.348-56.867-15.756v1.568c0 60.806 43.291 111.554 100.693 123.104-10.517 2.83-21.607 4.398-33.08 4.398-8.107 0-15.947-.803-23.634-2.333 15.985 49.907 62.336 86.199 117.253 87.194-42.947 33.654-97.099 53.655-155.916 53.655-10.134 0-20.116-.612-29.944-1.721 55.567 35.681 121.536 56.485 192.438 56.485 230.948 0 357.188-191.291 357.188-357.188l-.421-16.253c24.666-17.593 46.005-39.697 62.794-64.861z"/></symbol><symbol id="vk" viewBox="0 0 96.496 96.496">
<g><path d="M92.499,65.178c-2.873-3.446-6.254-6.387-9.453-9.51c-2.886-2.815-3.068-4.448-0.748-7.697c2.532-3.546,5.255-6.956,7.81-10.486c2.385-3.299,4.823-6.589,6.078-10.539c0.796-2.513,0.092-3.623-2.485-4.063c-0.444-0.077-0.903-0.081-1.355-0.081l-15.289-0.018c-1.883-0.028-2.924,0.793-3.59,2.462c-0.899,2.256-1.826,4.51-2.897,6.687  c-2.43,4.936-5.144,9.707-8.949,13.747c-0.839,0.891-1.767,2.017-3.169,1.553c-1.754-0.64-2.271-3.53-2.242-4.507l-0.015-17.647c-0.34-2.521-0.899-3.645-3.402-4.135l-15.882,0.003c-2.12,0-3.183,0.819-4.315,2.145c-0.653,0.766-0.85,1.263,0.492,1.517c2.636,0.5,4.121,2.206,4.515,4.849c0.632,4.223,0.588,8.463,0.224,12.703c-0.107,1.238-0.32,2.473-0.811,3.629c-0.768,1.817-2.008,2.187-3.637,1.069c-1.475-1.012-2.511-2.44-3.525-3.874c-3.809-5.382-6.848-11.186-9.326-17.285c-0.716-1.762-1.951-2.83-3.818-2.859c-4.587-0.073-9.175-0.085-13.762,0.004c-2.76,0.052-3.583,1.392-2.459,3.894c4.996,11.113,10.557,21.917,17.816,31.759c3.727,5.051,8.006,9.51,13.534,12.67c6.265,3.582,13.009,4.66,20.112,4.328c3.326-0.156,4.325-1.021,4.479-4.336c0.104-2.268,0.361-4.523,1.48-6.561c1.098-2,2.761-2.381,4.678-1.137c0.959,0.623,1.767,1.416,2.53,2.252c1.872,2.048,3.677,4.158,5.62,6.137c2.437,2.48,5.324,3.945,8.954,3.646L93.744,75.5c2.264-0.148,3.438-2.924,2.138-5.451C94.969,68.279,93.771,66.703,92.499,65.178z"/>
</g></symbol></svg>